# xmcd
#
# Track frame offsets: 
#        150
#        11227
#        44702
#        72162
#        96097
#        123377
#        149960
#        159090
#        190902
#        215390
#        235652
#        265130
#
# Disc length: 3909 seconds
#
# Revision: 3
# Processed by: cddbd v1.5.2PL0 Copyright (c) Steve Scherf et al.
# Submitted via: ExactAudioCopy v0.99pb5
#
DISCID=af0f430c
DTITLE=Mondo Grosso - Born Free
DYEAR=1995
DGENRE=Club
TTITLE0=Jour Et Nuit
TTITLE1=Do You See What I See
TTITLE2=Family (Album Edit)
TTITLE3=What Goes Up Must Come Down
TTITLE4=Running Man
TTITLE5=Life Without Spring
TTITLE6=Hemisphere
TTITLE7=To The Curb
TTITLE8=Move Into The Night
TTITLE9=Le Manege (Album Edit)
TTITLE10=Sphere
TTITLE11=Give Me A Reason
EXTD=
EXTT0=
EXTT1=
EXTT2=
EXTT3=
EXTT4=
EXTT5=
EXTT6=
EXTT7=
EXTT8=
EXTT9=
EXTT10=
EXTT11=
PLAYORDER=
